<svg xmlns="http://www.w3.org/2000/svg" viewBox="0 0 64 64">
  <rect width="64" height="64" rx="14" fill="#0b0e14"/>
  <rect x="1" y="1" width="62" height="62" rx="13" fill="none" stroke="#232b3d" stroke-width="2"/>
  <g transform="translate(2 13) scale(.3333)">
    <path d="M14 20H166M14 56H166M14 92H166M42 10V102M90 10V102M138 10V102" fill="none" stroke="#232b3d" stroke-width="3"/>
    <path d="M12 84L42 70L68 78L94 42L121 54L166 20" fill="none" stroke="#e8b45a" stroke-width="7.5" stroke-linecap="round" stroke-linejoin="round"/>
    <g fill="#11151f" stroke="#7aa5ff" stroke-width="6">
      <path d="M42 48V86"/><rect x="36" y="58" width="12" height="18" rx="2"/>
      <path d="M76 50V90"/><rect x="70" y="61" width="12" height="20" rx="2"/>
      <path d="M121 29V68"/><rect x="115" y="39" width="12" height="20" rx="2"/>
    </g>
    <path d="M94 30L106 42L94 54L82 42Z" fill="#0b0e14" stroke="#e8b45a" stroke-width="7.5"/>
    <circle cx="166" cy="20" r="7" fill="#e8b45a"/>
  </g>
</svg>
